<?xml version="1.0" encoding="utf-8"?>
<!-- Generator: Adobe Illustrator 22.0.1, SVG Export Plug-In . SVG Version: 6.00 Build 0)  -->
<svg version="1.1" id="Layer_1" xmlns="http://www.w3.org/2000/svg" xmlns:xlink="http://www.w3.org/1999/xlink" x="0px" y="0px"
	 width="70px" height="70px" viewBox="0 0 70 70" style="enable-background:new 0 0 70 70;" xml:space="preserve">
<style type="text/css">
	.st0{fill:#FFFFFF;stroke:#C1272D;stroke-width:2;stroke-miterlimit:10;}
	.st1{fill:#C1272D;}
</style>
<g>
	<circle class="st0" cx="35" cy="35" r="34"/>
	<g>
		<path class="st1" d="M13.4,27.5l2.3,0.7c-0.2,0.7-0.4,1.2-0.7,1.6s-0.8,0.8-1.3,1s-1.1,0.3-1.9,0.3c-0.9,0-1.7-0.1-2.3-0.4
			c-0.6-0.3-1.1-0.7-1.5-1.4s-0.6-1.6-0.6-2.6c0-1.4,0.4-2.5,1.1-3.3c0.8-0.8,1.8-1.1,3.2-1.1c1.1,0,1.9,0.2,2.6,0.7s1.1,1.1,1.4,2
			l-2.3,0.5c-0.1-0.3-0.2-0.5-0.3-0.6c-0.1-0.2-0.3-0.4-0.5-0.5s-0.5-0.2-0.7-0.2c-0.6,0-1.1,0.2-1.4,0.7C10.1,25.4,10,26,10,26.7
			c0,1,0.1,1.6,0.4,2s0.7,0.5,1.2,0.5c0.5,0,0.9-0.1,1.2-0.4S13.2,28.1,13.4,27.5z"/>
		<path class="st1" d="M16.6,26.8c0-1.4,0.4-2.5,1.2-3.3s1.9-1.2,3.3-1.2c1.4,0,2.5,0.4,3.3,1.2s1.2,1.8,1.2,3.2
			c0,1-0.2,1.8-0.5,2.5s-0.8,1.1-1.5,1.5s-1.4,0.5-2.4,0.5c-1,0-1.8-0.2-2.4-0.5s-1.1-0.8-1.5-1.5S16.6,27.8,16.6,26.8z M19.3,26.8
			c0,0.9,0.2,1.5,0.5,1.9s0.8,0.6,1.3,0.6c0.6,0,1-0.2,1.3-0.6s0.5-1,0.5-2c0-0.8-0.2-1.4-0.5-1.8s-0.8-0.6-1.3-0.6
			c-0.5,0-1,0.2-1.3,0.6S19.3,25.9,19.3,26.8z"/>
		<path class="st1" d="M26.9,22.5h3.5l1.3,5.2l1.3-5.2h3.5v8.6h-2.2v-6.6l-1.7,6.6h-2l-1.7-6.6v6.6h-2.2V22.5z"/>
		<path class="st1" d="M38.4,22.5h2.7v8.6h-2.7V22.5z"/>
		<path class="st1" d="M43,22.5h2.5l3.2,4.8v-4.8h2.5v8.6h-2.5l-3.2-4.7v4.7H43V22.5z"/>
		<path class="st1" d="M57.3,27.9v-1.8h4.1v3.7c-0.8,0.5-1.5,0.9-2.1,1.1s-1.3,0.3-2.1,0.3c-1,0-1.9-0.2-2.5-0.5s-1.1-0.9-1.5-1.6
			s-0.5-1.5-0.5-2.4c0-0.9,0.2-1.8,0.6-2.4s1-1.2,1.7-1.6c0.6-0.3,1.4-0.4,2.3-0.4c0.9,0,1.7,0.1,2.1,0.3s0.9,0.4,1.2,0.8
			s0.5,0.8,0.7,1.4l-2.6,0.5c-0.1-0.3-0.3-0.6-0.5-0.7s-0.6-0.3-1-0.3c-0.6,0-1,0.2-1.4,0.6s-0.5,1-0.5,1.9c0,0.9,0.2,1.6,0.5,2
			s0.8,0.6,1.5,0.6c0.3,0,0.6,0,0.8-0.1s0.6-0.2,0.9-0.4v-0.8H57.3z"/>
	</g>
	<g>
		<path class="st1" d="M7.4,43.9l3.6-0.2c0.1,0.6,0.2,1.1,0.5,1.5c0.4,0.5,1,0.8,1.7,0.8c0.5,0,1-0.1,1.3-0.4c0.3-0.3,0.4-0.6,0.4-1
			c0-0.3-0.1-0.7-0.4-0.9c-0.3-0.3-0.9-0.5-1.9-0.8c-1.7-0.4-2.9-0.9-3.6-1.6c-0.7-0.7-1.1-1.5-1.1-2.6c0-0.7,0.2-1.3,0.6-1.9
			s0.9-1.1,1.7-1.4c0.7-0.3,1.7-0.5,3-0.5c1.6,0,2.8,0.3,3.6,0.9c0.8,0.6,1.3,1.6,1.5,3l-3.6,0.2c-0.1-0.6-0.3-1-0.6-1.3
			c-0.3-0.3-0.7-0.4-1.3-0.4c-0.4,0-0.8,0.1-1,0.3c-0.2,0.2-0.3,0.5-0.3,0.7c0,0.2,0.1,0.4,0.3,0.6c0.2,0.2,0.6,0.3,1.3,0.5
			c1.7,0.4,2.9,0.8,3.6,1.2s1.2,0.9,1.6,1.5s0.5,1.2,0.5,2c0,0.9-0.2,1.6-0.7,2.4c-0.4,0.7-1,1.3-1.8,1.6c-0.8,0.4-1.8,0.6-3,0.6
			c-2.1,0-3.5-0.4-4.4-1.3S7.5,45.2,7.4,43.9z"/>
		<path class="st1" d="M20,41.6c0-2.2,0.6-3.9,1.7-5.1s2.7-1.8,4.7-1.8c2,0,3.6,0.6,4.7,1.8c1.1,1.2,1.7,2.9,1.7,5
			c0,1.6-0.2,2.8-0.7,3.8c-0.5,1-1.2,1.8-2.1,2.3c-0.9,0.6-2.1,0.8-3.4,0.8c-1.4,0-2.5-0.2-3.4-0.7s-1.6-1.2-2.2-2.3
			C20.2,44.5,20,43.2,20,41.6z M23.8,41.7c0,1.3,0.2,2.3,0.7,2.9s1.1,0.9,1.9,0.9c0.8,0,1.5-0.3,1.9-0.9s0.7-1.6,0.7-3.1
			c0-1.3-0.2-2.2-0.7-2.7s-1.1-0.9-1.9-0.9c-0.8,0-1.4,0.3-1.8,0.9C24,39.3,23.8,40.3,23.8,41.7z"/>
		<path class="st1" d="M34.3,41.6c0-2.2,0.6-3.9,1.7-5.1s2.7-1.8,4.7-1.8c2,0,3.6,0.6,4.7,1.8c1.1,1.2,1.7,2.9,1.7,5
			c0,1.6-0.2,2.8-0.7,3.8s-1.2,1.8-2.1,2.3c-0.9,0.6-2.1,0.8-3.4,0.8c-1.4,0-2.5-0.2-3.4-0.7c-0.9-0.5-1.6-1.2-2.2-2.3
			C34.6,44.5,34.3,43.2,34.3,41.6z M38.1,41.7c0,1.3,0.2,2.3,0.7,2.9c0.5,0.6,1.1,0.9,1.9,0.9c0.8,0,1.5-0.3,1.9-0.9
			s0.7-1.6,0.7-3.1c0-1.3-0.2-2.2-0.7-2.7s-1.1-0.9-1.9-0.9c-0.8,0-1.4,0.3-1.8,0.9S38.1,40.3,38.1,41.7z"/>
		<path class="st1" d="M49.1,35h3.6l4.6,7.4V35h3.6v13.3h-3.6L52.7,41v7.3h-3.6V35z"/>
	</g>
</g>
</svg>
